<svg width="501" height="639" viewBox="0 0 501 639" fill="none" xmlns="http://www.w3.org/2000/svg">
<path d="M321.5 506C295.5 506 271.5 501.5 249.5 492.5C227.5 483.167 208.333 470.167 192 453.5C176 436.833 163.5 417.167 154.5 394.5C145.5 371.5 141 346.5 141 319.5C141 292.5 145.333 267.833 154 245.5C163 223.167 175.5 203.833 191.5 187.5C207.833 170.833 227 158.167 249 149.5C271 140.5 295.167 136 321.5 136C351.167 136 377.833 141.833 401.5 153.5C425.5 164.833 445 181 460 202C475.333 222.667 484.667 247 488 275H413C408.667 249.333 398.167 230 381.5 217C364.833 203.667 345 197 322 197C301.667 197 283.667 201.833 268 211.5C252.667 221.167 240.667 235.167 232 253.5C223.333 271.5 219 293.333 219 319C219 345 223.333 367.5 232 386.5C241 405.167 253.333 419.667 269 430C284.667 440 302.667 445 323 445C344.667 445 363.833 438.5 380.5 425.5C397.167 412.5 408 393.167 413 367.5H489C484.667 395.5 474.833 420 459.5 441C444.167 461.667 424.667 477.667 401 489C377.333 500.333 350.833 506 321.5 506Z" fill="white"/>
<line x1="100.858" y1="567.569" x2="171.569" y2="496.858" stroke="white" stroke-width="40"/>
<line y1="320" x2="100" y2="320" stroke="white" stroke-width="40"/>
<line x1="103.368" y1="72.2114" x2="174.078" y2="142.922" stroke="white" stroke-width="40"/>
<line x1="338" y1="100" x2="338" stroke="white" stroke-width="40"/>
<line x1="338" y1="639" x2="338" y2="539" stroke="white" stroke-width="40"/>
</svg>
